# xmcd CD database file
# Copyright (C) 1993-1998 Ti Kan
#
# Track frame offsets:
#  150
#  16760
#  33927
#  46867
#  66862
#  79882
#  95047
#  108680
#  123615
#  141000
#
# Disc length: 2104 seconds
#
# Revision: 2
# Processed by: cddbd v1.4b41PL1 Copyright (c) Steve Scherf et al.
# Submitted via: KiC 2.1 - (C) 1996-1998 Alwin Hoogerdijk
#
DISCID=8408360a
DTITLE=Kathy Mattea - A Collection of Hits
DYEAR=1900
DGENRE=
TTITLE0=Love at the Five and Dime
TTITLE1=Walk the Way the Wind Blows
TTITLE2=Train of Memories
TTITLE3=Goin' Gone
TTITLE4=The Battle Hymn of Love (With Tim O'Brien)
TTITLE5=Eighteen Wheels and a Dozen Roses
TTITLE6=Untold Stories
TTITLE7=Life as We Knew It
TTITLE8=A Few Good Things Remain
TTITLE9=Where've You Been
EXTD=
EXTT0=
EXTT1=
EXTT2=
EXTT3=
EXTT4=
EXTT5=
EXTT6=
EXTT7=
EXTT8=
EXTT9=
PLAYORDER=
